<svg width="54" height="62" viewBox="0 0 54 62" fill="none" xmlns="http://www.w3.org/2000/svg">
<rect width="54" height="62" rx="10.3333" fill="#FCE8E8"/>
<g clip-path="url(#clip0_2274_93767)">
<path fill-rule="evenodd" clip-rule="evenodd" d="M30.8572 7.75L46.2858 23.25V48.825C46.2858 51.8211 43.8681 54.25 40.8858 54.25H13.1144C10.132 54.25 7.71436 51.8211 7.71436 48.825V13.175C7.71436 10.1789 10.132 7.75 13.1144 7.75H30.8572Z" fill="#E94848"/>
<path d="M25.7013 24.7998C24.6901 24.7998 23.8584 25.6353 23.8584 26.6512C23.8584 27.9141 24.5569 29.482 25.2924 30.9557C24.7175 32.7637 24.0651 34.7013 23.2307 36.3363C21.5229 37.0095 20 37.5098 19.0843 38.2513C19.07 38.266 19.0566 38.2814 19.044 38.2976C18.7094 38.6414 18.5142 39.1094 18.5142 39.6109C18.5142 40.6268 19.3458 41.4623 20.357 41.4623C20.8501 41.4623 21.3261 41.2774 21.6701 40.9242C21.682 40.9151 21.6935 40.9054 21.7046 40.8953C22.3786 40.0868 23.1734 38.62 23.8815 37.2793C25.5135 36.6344 27.2239 35.9781 28.8745 35.5841C30.0794 36.5597 31.8225 37.2041 33.257 37.2041C34.2683 37.2041 35.0999 36.3686 35.0999 35.3527C35.0999 34.3368 34.2683 33.5013 33.257 33.5013C32.1066 33.5013 30.4349 33.9139 29.1567 34.346C28.1206 33.3689 27.1687 32.1485 26.4845 30.8515C26.9733 29.3387 27.5442 27.8249 27.5442 26.6512C27.5442 25.6353 26.7125 24.7998 25.7013 24.7998ZM25.7013 25.9106C26.115 25.9106 26.4384 26.2356 26.4384 26.6512C26.4384 27.2069 26.1423 28.23 25.7992 29.3299C25.3408 28.2599 24.9642 27.2332 24.9642 26.6512C24.9642 26.2356 25.2876 25.9106 25.7013 25.9106ZM26.018 32.2459C26.5723 33.1316 27.2215 33.9558 27.93 34.6874C26.8371 34.9876 25.7698 35.3723 24.7165 35.7751C25.2253 34.6215 25.6325 33.4246 26.018 32.2459ZM33.257 34.6122C33.6707 34.6122 33.9942 34.9371 33.9942 35.3527C33.9942 35.7683 33.6707 36.0933 33.257 36.0933C32.4266 36.0933 31.2463 35.7167 30.3027 35.1907C31.3857 34.8831 32.5675 34.6122 33.257 34.6122ZM22.2575 37.9273C21.7392 38.8566 21.2241 39.724 20.8638 40.1605C20.7407 40.2788 20.577 40.3515 20.357 40.3515C19.9434 40.3515 19.6199 40.0265 19.6199 39.6109C19.6199 39.4154 19.7026 39.2211 19.8157 39.096C20.248 38.7599 21.1885 38.3571 22.2575 37.9273Z" fill="white"/>
<g filter="url(#filter0_d_2274_93767)">
<path d="M46.2856 23.25H36.5298C33.5475 23.25 30.8571 20.5471 30.8571 17.551V7.75L46.2856 23.25Z" fill="black"/>
</g>
<path d="M46.2856 23.25H36.5298C33.5475 23.25 30.8571 20.5471 30.8571 17.551V7.75L46.2856 23.25Z" fill="white"/>
</g>
<defs>
<filter id="filter0_d_2274_93767" x="28.2736" y="2.58333" width="20.5954" height="20.6667" filterUnits="userSpaceOnUse" color-interpolation-filters="sRGB">
<feFlood flood-opacity="0" result="BackgroundImageFix"/>
<feColorMatrix in="SourceAlpha" type="matrix" values="0 0 0 0 0 0 0 0 0 0 0 0 0 0 0 0 0 0 127 0" result="hardAlpha"/>
<feOffset dy="-2.58333"/>
<feGaussianBlur stdDeviation="1.29167"/>
<feComposite in2="hardAlpha" operator="out"/>
<feColorMatrix type="matrix" values="0 0 0 0 0 0 0 0 0 0 0 0 0 0 0 0 0 0 0.0909637 0"/>
<feBlend mode="normal" in2="BackgroundImageFix" result="effect1_dropShadow_2274_93767"/>
<feBlend mode="normal" in="SourceGraphic" in2="effect1_dropShadow_2274_93767" result="shape"/>
</filter>
<clipPath id="clip0_2274_93767">
<rect width="38.5714" height="46.5" fill="white" transform="translate(7.71436 7.75)"/>
</clipPath>
</defs>
</svg>
